<svg id="visual" viewBox="0 0 900 600" width="900" height="600" xmlns="http://www.w3.org/2000/svg" xmlns:xlink="http://www.w3.org/1999/xlink" version="1.1"><rect x="0" y="0" width="900" height="600" fill="#cdcdcd"></rect><defs><linearGradient id="grad1_0" x1="33.3%" y1="0%" x2="100%" y2="100%"><stop offset="20%" stop-color="#cdcdcd" stop-opacity="1"></stop><stop offset="80%" stop-color="#cdcdcd" stop-opacity="1"></stop></linearGradient></defs><defs><linearGradient id="grad2_0" x1="0%" y1="0%" x2="66.7%" y2="100%"><stop offset="20%" stop-color="#cdcdcd" stop-opacity="1"></stop><stop offset="80%" stop-color="#cdcdcd" stop-opacity="1"></stop></linearGradient></defs><g transform="translate(900, 0)"><path d="M0 297.5C-36.4 290.5 -72.9 283.6 -112.5 271.6C-152.1 259.7 -195 242.7 -210.3 210.3C-225.7 178 -213.6 130.2 -223.6 92.6C-233.5 55 -265.5 27.5 -297.5 0L0 0Z" fill="#E08181"></path></g><g transform="translate(0, 600)"><path d="M0 -297.5C28.9 -268 57.8 -238.5 94.1 -227.3C130.5 -216.1 174.4 -223.1 207.2 -207.2C240 -191.2 261.6 -152.2 274.8 -113.8C288 -75.5 292.7 -37.7 297.5 0L0 0Z" fill="#E08181"></path></g></svg>