<svg id="visual" viewBox="0 0 900 600" width="900" height="600" xmlns="http://www.w3.org/2000/svg" xmlns:xlink="http://www.w3.org/1999/xlink" version="1.1"><rect x="0" y="0" width="900" height="600" fill="#cdcdcd"></rect><defs><linearGradient id="grad1_0" x1="33.3%" y1="100%" x2="100%" y2="0%"><stop offset="20%" stop-color="#cdcdcd" stop-opacity="1"></stop><stop offset="80%" stop-color="#cdcdcd" stop-opacity="1"></stop></linearGradient></defs><defs><linearGradient id="grad2_0" x1="0%" y1="100%" x2="66.7%" y2="0%"><stop offset="20%" stop-color="#cdcdcd" stop-opacity="1"></stop><stop offset="80%" stop-color="#cdcdcd" stop-opacity="1"></stop></linearGradient></defs><g transform="translate(900, 600)"><path d="M-270.4 0C-249.5 -25.1 -228.5 -50.2 -211.1 -68.6C-193.8 -87 -180 -98.6 -175.6 -127.5C-171.1 -156.5 -176 -202.7 -158.9 -218.8C-141.9 -234.9 -103.1 -220.9 -72.9 -224.4C-42.8 -228 -21.4 -249.2 0 -270.4L0 0Z" fill="#E08181"></path></g><g transform="translate(0, 0)"><path d="M270.4 0C236.3 18 202.1 36 198.8 64.6C195.4 93.2 222.9 132.4 218.8 158.9C214.6 185.5 178.9 199.5 148.7 204.7C118.6 209.9 94 206.4 70.1 215.9C46.3 225.4 23.1 247.9 0 270.4L0 0Z" fill="#E08181"></path></g></svg>